<?xml version="1.0" encoding="UTF-8" standalone="no"?>
<!-- Created with Inkscape (http://www.inkscape.org/) -->

<svg
  width="24.16486mm"
  height="24.300915mm"
  viewBox="0 0 24.16486 24.300915"
  version="1.1"
  id="svg1"
  xml:space="preserve"
  inkscape:version="1.3 (0e150ed6c4, 2023-07-21)"
  sodipodi:docname="cnb.svg"
  xmlns:inkscape="http://www.inkscape.org/namespaces/inkscape"
  xmlns:sodipodi="http://sodipodi.sourceforge.net/DTD/sodipodi-0.dtd"
  xmlns="http://www.w3.org/2000/svg"
  xmlns:svg="http://www.w3.org/2000/svg"><sodipodi:namedview
     id="namedview1"
     pagecolor="#505050"
     bordercolor="#eeeeee"
     borderopacity="1"
     inkscape:showpageshadow="0"
     inkscape:pageopacity="0"
     inkscape:pagecheckerboard="0"
     inkscape:deskcolor="#d1d1d1"
     inkscape:document-units="mm"
     inkscape:zoom="2.6759349"
     inkscape:cx="46.899497"
     inkscape:cy="48.768003"
     inkscape:window-width="1366"
     inkscape:window-height="708"
     inkscape:window-x="0"
     inkscape:window-y="32"
     inkscape:window-maximized="1"
     inkscape:current-layer="layer1" /><defs
     id="defs1" /><g
     inkscape:label="Layer 1"
     inkscape:groupmode="layer"
     id="layer1"
     transform="translate(-48.406784,-144.77296)"><path
       d="m 48.743417,168.65049 c -0.301757,-0.33344 -0.333181,-1.44132 -0.333181,-11.74604 0,-14.023 -0.271092,-13.31282 3.991561,-10.45703 2.278418,1.52645 2.389737,1.57644 2.906986,1.30542 1.892576,-0.99161 7.014151,-1.14282 9.683617,-0.28589 l 1.382479,0.44379 2.290168,-1.52526 c 4.156196,-2.76807 3.903631,-3.45318 3.903631,10.58893 0,10.76703 -0.01977,11.39575 -0.368167,11.71106 -0.596535,0.53985 -22.967062,0.5065 -23.457094,-0.0351 z m 22.617338,-6.56062 v -5.72085 l -0.855612,-0.2852 c -0.745844,-0.24862 -0.855612,-0.36054 -0.855612,-0.87239 0,-0.54688 0.05875,-0.59143 0.855612,-0.6491 1.33306,-0.0964 1.322125,-1.24667 -0.01187,-1.24667 -0.907893,0 -1.409338,-0.26496 -1.613411,-0.85255 -0.164756,-0.47437 0.419596,-0.75801 1.561701,-0.75801 h 0.919176 v -2.72971 c 0,-2.12892 -0.0554,-2.69695 -0.251649,-2.58087 -0.138407,0.0819 -1.177222,0.76666 -2.308475,1.52178 -2.29137,1.52952 -2.212001,1.50589 -3.458987,1.02966 -0.773847,-0.29553 -0.913722,-0.30253 -1.005448,-0.0503 -0.05859,0.16113 -0.245982,0.70063 -0.416407,1.1989 -0.61358,1.7939 -1.551825,1.1838 -1.385995,-0.90123 0.04169,-0.52409 -0.01363,-0.91181 -0.130343,-0.9134 -0.11153,-0.001 -0.406608,-0.0573 -0.655748,-0.12413 -0.442308,-0.11853 -0.452969,-0.0832 -0.452969,1.50077 0,1.71482 -0.124703,1.96066 -0.896304,1.767 -0.428537,-0.1076 -0.483679,-0.26394 -0.61463,-1.74323 -0.11613,-1.31193 -0.200951,-1.60316 -0.440186,-1.51135 -0.162983,0.0625 -0.43037,0.11373 -0.594182,0.11373 -0.2388,0 -0.270993,0.17911 -0.162383,0.90337 0.192179,1.28158 -0.0053,1.91512 -0.596079,1.91512 -0.501962,0 -1.125281,-1.13042 -1.125281,-2.04076 0,-0.30651 -0.09645,-0.39418 -0.35231,-0.32028 -0.193777,0.056 -0.764769,0.21646 -1.268885,0.3566 l -0.916575,0.25482 -2.10323,-1.40408 c -1.156782,-0.77225 -2.216475,-1.47106 -2.354881,-1.55292 -0.195871,-0.11587 -0.251652,0.41168 -0.251652,2.37955 v 2.52838 h 0.7668 c 1.075482,0 1.582291,0.39395 1.230825,0.95673 -0.296323,0.4745 -1.010538,0.85516 -1.604462,0.85516 -0.816693,0 -0.466916,0.78874 0.412116,0.9293 1.298545,0.20764 1.123699,1.4487 -0.252778,1.79417 l -0.552501,0.13866 v 5.91713 5.91712 h 10.871301 10.871297 z m -12.418374,-3.75554 c -0.518003,-0.19346 -0.946007,-0.90324 -0.789933,-1.30998 0.166538,-0.43399 0.507732,-0.34336 0.755623,0.20072 0.226732,0.49761 0.591224,0.53917 1.317895,0.15027 0.20163,-0.10786 0.810461,-0.14617 1.352957,-0.0851 0.808132,0.0911 1.035388,0.0441 1.257776,-0.26003 0.348102,-0.47606 0.77148,-0.11573 0.578486,0.49237 -0.172959,0.54494 -0.964961,0.73794 -1.87815,0.45768 -0.435863,-0.13379 -0.808543,-0.14916 -0.941448,-0.0389 -0.442431,0.36718 -1.224396,0.553 -1.653206,0.39285 z m -6.011594,-1.68773 c -1.078358,-1.07837 -0.320216,-2.9283 1.200084,-2.9283 1.088248,0 1.909742,1.06121 1.643292,2.12282 -0.31941,1.27266 -1.922168,1.72668 -2.843376,0.80548 z m 12.92081,0.0769 c -0.427974,-0.33664 -0.530451,-0.58662 -0.530451,-1.29397 0,-1.66465 1.848711,-2.34268 2.919084,-1.07062 1.321669,1.57072 -0.768017,3.63937 -2.388633,2.36459 z"
       id="path14401" /></g></svg>