<?xml version="1.0" encoding="UTF-8" standalone="no"?>
<!-- Created with Inkscape (http://www.inkscape.org/) -->

<svg
   width="308.45529"
   height="311.89005"
   viewBox="0 0 81.612127 82.520909"
   preserveAspectRatio="none"
   version="1.1"
   id="svg534"
   inkscape:version="1.2 (dc2aedaf03, 2022-05-15)"
   sodipodi:docname="cat.svg"
   xmlns:inkscape="http://www.inkscape.org/namespaces/inkscape"
   xmlns:sodipodi="http://sodipodi.sourceforge.net/DTD/sodipodi-0.dtd"
   xmlns="http://www.w3.org/2000/svg"
   xmlns:svg="http://www.w3.org/2000/svg">
  <sodipodi:namedview
     id="namedview536"
     pagecolor="#505050"
     bordercolor="#eeeeee"
     borderopacity="1"
     inkscape:showpageshadow="0"
     inkscape:pageopacity="0"
     inkscape:pagecheckerboard="0"
     inkscape:deskcolor="#505050"
     inkscape:document-units="mm"
     showgrid="false"
     inkscape:zoom="0.72567726"
     inkscape:cx="37.895634"
     inkscape:cy="109.55283"
     inkscape:window-width="1366"
     inkscape:window-height="705"
     inkscape:window-x="0"
     inkscape:window-y="34"
     inkscape:window-maximized="1"
     inkscape:current-layer="layer1" />
  <defs
     id="defs531" />
  <g
     inkscape:label="Layer 1"
     inkscape:groupmode="layer"
     id="layer1"
     transform="translate(-44.006202,-60.001948)">
    <g
       id="g15773"
       style="display:inline"
       transform="translate(-6.0724249,-105.26668)">
      <g
         id="g9614"
         transform="matrix(0.79044706,0,0,0.79096067,-129.35616,313.95033)">
        <path
           style="opacity:1;fill:#97a1e0;fill-opacity:1;stroke-width:0.264583"
           d="m 239.60527,-83.646121 76.72409,-0.09274 c 21.80127,-27.104619 13.27463,-75.352329 5.78354,-104.237239 l -16.03345,20.53504 c -10.15081,-2.20958 -29.29596,-4.2361 -44.70625,6.34286 l -31.28765,-17.73055 c -3.69121,36.07373 -7.23955,72.5427 9.51972,95.182629 z"
           id="path6670"
           sodipodi:nodetypes="ccccccc" />
        <g
           id="g9593">
          <g
             id="g9574">
            <g
               id="g9564">
              <g
                 id="g9556">
                <circle
                   style="opacity:1;fill:#161320;fill-opacity:1;stroke-width:0.264583"
                   id="path6778"
                   cx="271.65277"
                   cy="-133.6516"
                   r="10.120285" />
                <circle
                   style="opacity:1;fill:#d9e0ee;fill-opacity:1;stroke-width:0.32915"
                   id="path6782"
                   cx="267.37796"
                   cy="-136.52792"
                   r="3.7227175" />
              </g>
              <g
                 id="g9552">
                <circle
                   style="opacity:1;fill:#161320;fill-opacity:1;stroke-width:0.264583"
                   id="circle6780"
                   cx="304.87894"
                   cy="-136.79532"
                   r="10.120285" />
                <circle
                   style="opacity:1;fill:#d9e0ee;fill-opacity:1;stroke-width:0.32915"
                   id="circle6940"
                   cx="300.52634"
                   cy="-139.73868"
                   r="3.7227175" />
              </g>
            </g>
            <path
               style="opacity:1;fill:none;fill-opacity:1;stroke:#161320;stroke-width:1.865;stroke-linecap:round;stroke-linejoin:round;stroke-dasharray:none;stroke-opacity:1"
               d="m 279.42476,-120.80176 c 0,0 3.62889,4.48251 6.15336,4.41913 2.16922,-0.0545 2.92979,-3.85576 5.09027,-4.0578 2.12974,-0.19916 3.59973,3.52876 5.67247,3.00036 2.06396,-0.52616 3.52876,-5.3272 3.52876,-5.3272"
               id="path7005"
               sodipodi:nodetypes="csssc" />
          </g>
          <g
             id="g9548">
            <path
               style="opacity:1;fill:#5c69bb;fill-opacity:1;stroke:none;stroke-width:1.865;stroke-linecap:round;stroke-linejoin:round;stroke-dasharray:none;stroke-opacity:1"
               d="m 261.35235,-161.07897 c 0,0 6.83201,13.20864 11.95363,11.26792 5.45341,-2.06645 1.56816,-17.41511 1.56816,-17.41511 -6.52103,1.78697 -8.12786,2.58688 -13.52179,6.14719 z"
               id="path7133"
               sodipodi:nodetypes="cacc" />
            <path
               style="opacity:1;fill:#5c69bb;fill-opacity:1;stroke:none;stroke-width:1.865;stroke-linecap:round;stroke-linejoin:round;stroke-dasharray:none;stroke-opacity:1"
               d="m 277.93172,-168.03153 c 0,0 3.03066,17.43423 9.18047,16.33139 5.79919,-1.03996 2.75884,-17.4475 2.75884,-17.4475 -6.2046,-0.22347 -6.51464,0.0477 -11.93931,1.11611 z"
               id="path9529"
               sodipodi:nodetypes="cacc" />
            <path
               style="opacity:1;fill:#5c69bb;fill-opacity:1;stroke:none;stroke-width:1.865;stroke-linecap:round;stroke-linejoin:round;stroke-dasharray:none;stroke-opacity:1"
               d="m 293.26027,-169.11706 c 0,0 1.77357,16.0975 6.85142,16.53931 5.17812,0.45055 5.3306,-15.04587 5.3306,-15.04587 -3.37885,-0.55802 -4.05913,-1.15643 -12.18202,-1.49344 z"
               id="path9531"
               sodipodi:nodetypes="cscc" />
            <path
               style="opacity:1;fill:#5c69bb;fill-opacity:1;stroke:none;stroke-width:1.865;stroke-linecap:round;stroke-linejoin:round;stroke-dasharray:none;stroke-opacity:1"
               d="m 227.11364,-127.54899 c 0,0 18.78943,-3.17842 19.79737,3.43909 1.05952,6.95615 -18.79166,9.63921 -18.79166,9.63921 -0.71758,-4.44634 -0.86392,-8.76284 -1.00571,-13.0783 z"
               id="path9533"
               sodipodi:nodetypes="cacc" />
            <path
               style="opacity:1;fill:#5c69bb;fill-opacity:1;stroke:none;stroke-width:1.865;stroke-linecap:round;stroke-linejoin:round;stroke-dasharray:none;stroke-opacity:1"
               d="m 228.53992,-111.91584 c 0,0 17.62722,-3.96798 19.05666,2.26313 1.42148,6.19642 -16.07704,10.27553 -16.07704,10.27553 -1.42229,-4.07341 -2.2705,-8.28883 -2.97962,-12.53866 z"
               id="path9535"
               sodipodi:nodetypes="cacc" />
            <path
               style="opacity:1;fill:#5c69bb;fill-opacity:1;stroke:none;stroke-width:1.865;stroke-linecap:round;stroke-linejoin:round;stroke-dasharray:none;stroke-opacity:1"
               d="m 330.25224,-130.41483 c 0,0 -11.33134,-0.77377 -12.02839,3.32747 -0.76873,4.52296 11.30802,7.84612 11.30802,7.84612 0.41264,-3.76812 0.72216,-7.51019 0.72037,-11.17359 z"
               id="path9537"
               sodipodi:nodetypes="cacc" />
            <path
               style="opacity:1;fill:#5c69bb;fill-opacity:1;stroke:none;stroke-width:1.865;stroke-linecap:round;stroke-linejoin:round;stroke-dasharray:none;stroke-opacity:1"
               d="m 329.00666,-115.21763 c 0,0 -10.8824,-1.34343 -11.91522,2.58746 -1.08104,4.11441 9.52951,8.48892 9.52951,8.48892 1.20349,-3.80238 1.82526,-7.44766 2.38571,-11.07638 z"
               id="path9539"
               sodipodi:nodetypes="cacc" />
          </g>
        </g>
      </g>
      <path
         style="opacity:1;fill:#f2f2f2;fill-opacity:1;stroke:none;stroke-width:1.865;stroke-linecap:round;stroke-linejoin:round;stroke-dasharray:none;stroke-opacity:1"
         d="m 112.57864,247.72427 c 0,0 0.78789,-12.47377 -18.847575,-12.49278 -22.362337,-0.0216 -22.864136,12.55655 -22.864136,12.55655 z"
         id="path15561"
         sodipodi:nodetypes="cscc" />
    </g>
  </g>
</svg>
